<mxfile host="app.diagrams.net" modified="2020-12-14T15:34:13.006Z" agent="5.0 (Windows NT 10.0; Win64; x64) AppleWebKit/537.36 (KHTML, like Gecko) Chrome/87.0.4280.88 Safari/537.36" etag="rQmnq5bA5vr9J_hQLLyJ" version="14.0.1" type="github">
  <diagram id="iPOh9hNnexlb9-bXyk7U" name="第 1 页">
    <mxGraphModel dx="1422" dy="804" grid="0" gridSize="10" guides="1" tooltips="1" connect="1" arrows="1" fold="1" page="1" pageScale="1" pageWidth="827" pageHeight="1169" background="#DAD2D8" math="0" shadow="0">
      <root>
        <mxCell id="0" />
        <mxCell id="1" parent="0" />
        <mxCell id="CSSTJ6BtcHgGvx3lMUtp-1" value="Student" style="swimlane;fontStyle=1;align=center;verticalAlign=top;childLayout=stackLayout;horizontal=1;startSize=40;horizontalStack=0;resizeParent=1;resizeParentMax=0;resizeLast=0;collapsible=1;marginBottom=0;glass=0;shadow=0;fontSize=18;fillColor=#FAE5C7;strokeColor=#0F8B8D;fontColor=#143642;container=0;comic=1;treeMoving=0;treeFolding=0;resizeHeight=0;resizeWidth=0;movableLabel=0;backgroundOutline=0;metaEdit=0;autosize=0;" vertex="1" parent="1">
          <mxGeometry x="236" y="317" width="210" height="170" as="geometry" />
        </mxCell>
        <mxCell id="CSSTJ6BtcHgGvx3lMUtp-2" value="- name: String&#xa;- age: int&#xa;- remark: String" style="text;strokeColor=none;fillColor=none;align=left;verticalAlign=top;spacingLeft=4;spacingRight=4;overflow=hidden;rotatable=0;points=[[0,0.5],[1,0.5]];portConstraint=eastwest;fontSize=18;fontStyle=1;fontColor=#143642;" vertex="1" parent="CSSTJ6BtcHgGvx3lMUtp-1">
          <mxGeometry y="40" width="210" height="80" as="geometry" />
        </mxCell>
        <mxCell id="CSSTJ6BtcHgGvx3lMUtp-3" value="" style="line;strokeWidth=1;fillColor=none;align=left;verticalAlign=middle;spacingTop=-1;spacingLeft=3;spacingRight=3;rotatable=0;labelPosition=right;points=[];portConstraint=eastwest;labelBackgroundColor=#DAD2D8;strokeColor=#0F8B8D;fontColor=#143642;" vertex="1" parent="CSSTJ6BtcHgGvx3lMUtp-1">
          <mxGeometry y="120" width="210" height="8" as="geometry" />
        </mxCell>
        <mxCell id="CSSTJ6BtcHgGvx3lMUtp-4" value="+ study(): void" style="text;strokeColor=none;fillColor=none;align=left;verticalAlign=top;spacingLeft=4;spacingRight=4;overflow=hidden;rotatable=0;points=[[0,0.5],[1,0.5]];portConstraint=eastwest;fontSize=18;fontStyle=1;fontColor=#143642;" vertex="1" parent="CSSTJ6BtcHgGvx3lMUtp-1">
          <mxGeometry y="128" width="210" height="42" as="geometry" />
        </mxCell>
        <mxCell id="CSSTJ6BtcHgGvx3lMUtp-5" value="Classname" style="swimlane;fontStyle=1;align=center;verticalAlign=top;childLayout=stackLayout;horizontal=1;startSize=41;horizontalStack=0;resizeParent=1;resizeParentMax=0;resizeLast=0;collapsible=1;marginBottom=0;shadow=0;glass=0;comic=0;strokeColor=#0F8B8D;fillColor=#FAE5C7;fontColor=#143642;fontSize=20;" vertex="1" parent="1">
          <mxGeometry x="299" y="126" width="205" height="131" as="geometry" />
        </mxCell>
        <mxCell id="CSSTJ6BtcHgGvx3lMUtp-6" value="+ field: type" style="text;strokeColor=none;fillColor=none;align=left;verticalAlign=top;spacingLeft=4;spacingRight=4;overflow=hidden;rotatable=0;points=[[0,0.5],[1,0.5]];portConstraint=eastwest;fontSize=20;" vertex="1" parent="CSSTJ6BtcHgGvx3lMUtp-5">
          <mxGeometry y="41" width="205" height="38" as="geometry" />
        </mxCell>
        <mxCell id="CSSTJ6BtcHgGvx3lMUtp-7" value="" style="line;strokeWidth=1;fillColor=none;align=left;verticalAlign=middle;spacingTop=-1;spacingLeft=3;spacingRight=3;rotatable=0;labelPosition=right;points=[];portConstraint=eastwest;fontSize=20;" vertex="1" parent="CSSTJ6BtcHgGvx3lMUtp-5">
          <mxGeometry y="79" width="205" height="8" as="geometry" />
        </mxCell>
        <mxCell id="CSSTJ6BtcHgGvx3lMUtp-8" value="+ method(type): type" style="text;strokeColor=none;fillColor=none;align=left;verticalAlign=top;spacingLeft=4;spacingRight=4;overflow=hidden;rotatable=0;points=[[0,0.5],[1,0.5]];portConstraint=eastwest;fontSize=20;" vertex="1" parent="CSSTJ6BtcHgGvx3lMUtp-5">
          <mxGeometry y="87" width="205" height="44" as="geometry" />
        </mxCell>
        <mxCell id="CSSTJ6BtcHgGvx3lMUtp-10" value="Company" style="swimlane;fontStyle=1;align=center;verticalAlign=top;childLayout=stackLayout;horizontal=1;startSize=41;horizontalStack=0;resizeParent=1;resizeParentMax=0;resizeLast=0;collapsible=1;marginBottom=0;shadow=0;glass=0;comic=0;strokeColor=#0F8B8D;fillColor=#FAE5C7;fontColor=#143642;fontSize=20;rounded=1;" vertex="1" parent="1">
          <mxGeometry x="175" y="576" width="205" height="131" as="geometry" />
        </mxCell>
        <mxCell id="CSSTJ6BtcHgGvx3lMUtp-11" value="- address: Address" style="text;strokeColor=none;fillColor=none;align=left;verticalAlign=top;spacingLeft=4;spacingRight=4;overflow=hidden;rotatable=0;points=[[0,0.5],[1,0.5]];portConstraint=eastwest;fontSize=20;" vertex="1" parent="CSSTJ6BtcHgGvx3lMUtp-10">
          <mxGeometry y="41" width="205" height="38" as="geometry" />
        </mxCell>
        <mxCell id="CSSTJ6BtcHgGvx3lMUtp-12" value="" style="line;strokeWidth=1;fillColor=none;align=left;verticalAlign=middle;spacingTop=-1;spacingLeft=3;spacingRight=3;rotatable=0;labelPosition=right;points=[];portConstraint=eastwest;fontSize=20;" vertex="1" parent="CSSTJ6BtcHgGvx3lMUtp-10">
          <mxGeometry y="79" width="205" height="8" as="geometry" />
        </mxCell>
        <mxCell id="CSSTJ6BtcHgGvx3lMUtp-13" value="+ getAddr(): Address" style="text;strokeColor=none;fillColor=none;align=left;verticalAlign=top;spacingLeft=4;spacingRight=4;overflow=hidden;rotatable=0;points=[[0,0.5],[1,0.5]];portConstraint=eastwest;fontSize=20;" vertex="1" parent="CSSTJ6BtcHgGvx3lMUtp-10">
          <mxGeometry y="87" width="205" height="44" as="geometry" />
        </mxCell>
        <mxCell id="CSSTJ6BtcHgGvx3lMUtp-14" value="Address" style="swimlane;fontStyle=1;align=center;verticalAlign=top;childLayout=stackLayout;horizontal=1;startSize=41;horizontalStack=0;resizeParent=1;resizeParentMax=0;resizeLast=0;collapsible=1;marginBottom=0;shadow=0;glass=0;comic=0;strokeColor=#0F8B8D;fillColor=#FAE5C7;fontColor=#143642;fontSize=20;rounded=1;" vertex="1" parent="1">
          <mxGeometry x="484" y="558" width="205" height="156" as="geometry" />
        </mxCell>
        <mxCell id="CSSTJ6BtcHgGvx3lMUtp-15" value="- city: String&#xa;- street: String" style="text;strokeColor=none;fillColor=none;align=left;verticalAlign=top;spacingLeft=4;spacingRight=4;overflow=hidden;rotatable=0;points=[[0,0.5],[1,0.5]];portConstraint=eastwest;fontSize=20;" vertex="1" parent="CSSTJ6BtcHgGvx3lMUtp-14">
          <mxGeometry y="41" width="205" height="63" as="geometry" />
        </mxCell>
        <mxCell id="CSSTJ6BtcHgGvx3lMUtp-16" value="" style="line;strokeWidth=1;fillColor=none;align=left;verticalAlign=middle;spacingTop=-1;spacingLeft=3;spacingRight=3;rotatable=0;labelPosition=right;points=[];portConstraint=eastwest;fontSize=20;" vertex="1" parent="CSSTJ6BtcHgGvx3lMUtp-14">
          <mxGeometry y="104" width="205" height="8" as="geometry" />
        </mxCell>
        <mxCell id="CSSTJ6BtcHgGvx3lMUtp-17" value="+ getAddr(): String" style="text;strokeColor=none;fillColor=none;align=left;verticalAlign=top;spacingLeft=4;spacingRight=4;overflow=hidden;rotatable=0;points=[[0,0.5],[1,0.5]];portConstraint=eastwest;fontSize=20;" vertex="1" parent="CSSTJ6BtcHgGvx3lMUtp-14">
          <mxGeometry y="112" width="205" height="44" as="geometry" />
        </mxCell>
        <mxCell id="CSSTJ6BtcHgGvx3lMUtp-18" style="edgeStyle=orthogonalEdgeStyle;rounded=1;orthogonalLoop=1;jettySize=auto;html=1;exitX=1;exitY=0.5;exitDx=0;exitDy=0;entryX=0;entryY=0.5;entryDx=0;entryDy=0;strokeColor=#A8201A;fillColor=#FAE5C7;fontSize=20;fontColor=#143642;strokeWidth=4;" edge="1" parent="1" source="CSSTJ6BtcHgGvx3lMUtp-11" target="CSSTJ6BtcHgGvx3lMUtp-14">
          <mxGeometry relative="1" as="geometry" />
        </mxCell>
      </root>
    </mxGraphModel>
  </diagram>
</mxfile>
